<?xml version="1.0" encoding="utf-8"?>
<!-- Generator: Adobe Illustrator 19.0.0, SVG Export Plug-In . SVG Version: 6.00 Build 0)  -->
<svg version="1.1" xmlns="http://www.w3.org/2000/svg" xmlns:xlink="http://www.w3.org/1999/xlink" x="0px" y="0px"
	 viewBox="0 0 360 360" style="enable-background:new 0 0 360 360;" xml:space="preserve">
<style type="text/css">
	.st0{fill:#4778FF;}
</style>
<g id="Layer_1">
	<g id="XMLID_355_">
		<path id="XMLID_362_" class="st0" d="M150,212.2c-0.2,4.3,0,8.5,0,12.8c-0.5-0.5-1.3-1.1-1.9-1.8c-3.9-3.8-7.8-7.6-11.6-11.5
			c-0.9-0.9-1.5-0.9-2.6-0.3c-9.5,5.4-19.7,7.4-30.2,3.5c-13.2-5-20.4-14.9-22.4-28.6h12.6c1.2,7,6,13.1,13.8,16
			c10.2,3.7,22.3-2.1,26.3-12.5c0.4-1,0.7-2.1,1-3.4c0.1-0.5,0.3-1.1,0.4-1.7c0.4,0.6,0.8,1.1,1.1,1.7c2.3,3.4,4.5,6.6,6.6,9.8
			c1.3,1.9,2.3,4,3.7,5.7C149.3,204.8,150.2,208.2,150,212.2z"/>
		<path id="XMLID_361_" class="st0" d="M203.6,182.4l9.7,14.1c-0.8,2-1.8,3.8-2.9,5.5c-11.5,17-36,20-51.3,6.3
			c-5.8-5.2-10-11.6-14.1-18c-0.9-1.3-1.7-2.7-2.6-4.1c-1-1.6-2-3.1-3-4.7c-1.7-2.6-3.4-5.2-5.2-7.8c-2.7-3.9-6-7.3-10.2-9.6
			c-10.9-6-25.3-0.5-29.2,11.3c-0.7,2-1,4-1.1,6H80.8c-0.2-14.1,9.2-24.9,19-29.3c13.3-6,29.7-3.1,39.5,7.8
			c4.3,4.8,7.5,10.6,11.3,16c1.3,1.8,2.5,3.7,3.8,5.5c1.1,1.6,2.1,3.1,3.2,4.7c1.7,2.5,3.5,4.9,5.3,7.3c2,2.6,4.8,4.8,7.5,6.6
			c10,6.6,24.8,2.7,30.3-7.9c1-1.9,1.7-4,2.1-6h0C203,184.9,203.3,183.6,203.6,182.4z"/>
		<path id="XMLID_360_" class="st0" d="M279.2,181.5v36.7c0,1.7-0.1,3.3-0.4,4.9c-1.9,11.5-10.1,20.2-18.6,24.1
			c-13.3,6-29.7,3.1-39.5-7.8c-1.2-1.3-2.3-2.7-3.3-4.1l8.9-8.9c2.6,3.6,5.8,6.7,9.7,8.9c10.9,6,25.3,0.5,29.2-11.3c0.7-2,1-4,1.1-6
			v-36.4c-0.1-2-0.5-4-1.1-6c-3.9-11.8-18.4-17.3-29.2-11.3c-4.2,2.3-7.5,5.7-10.2,9.6c-0.7,1-1.3,1.9-1.9,2.9l-7.5-11.1
			c1.3-1.9,2.7-3.7,4.3-5.4c9.8-10.9,26.2-13.8,39.5-7.8C269.9,156.6,279.3,167.4,279.2,181.5z"/>
		<path id="XMLID_359_" class="st0" d="M168.1,167.8c-0.3,0.5-0.4,1.2-0.5,2.4h-1.9C166.4,169.3,167.2,168.5,168.1,167.8z"/>
		<path id="XMLID_358_" class="st0" d="M262.2,200.3v14.4c-12.9,4.9-28.2,1.7-37.5-8.6c-4.3-4.8-7.6-10.7-11.3-16
			c-1.3-1.8-2.5-3.7-3.8-5.5c-0.7-1-1.4-2-2.1-3c-0.4-0.6-0.8-1.1-1.2-1.7c-1.7-2.5-3.5-4.9-5.3-7.3c-0.1-0.2-0.3-0.3-0.4-0.5
			c-1.2-2.1-2.8-4.1-4.9-5.8c-7.9-6.3-18.2-6.5-25.9-0.3c-1,0.8-1.5,1.2-1.8,1.8c-0.9,0.7-1.7,1.6-2.5,2.4h-10.6v-60.5h12.7v42.2
			c0.3-0.1,0.6,0,0.8-0.1c9.8-4.5,20.5-3.9,29.4,1.2c2.5,1.3,4.8,2.9,7,4.8c5.8,5.2,10,11.5,14.1,18c0.9,1.3,1.7,2.7,2.6,4.1
			c1,1.6,2,3.1,3,4.7c1.7,2.6,3.4,5.2,5.2,7.8c2.7,3.9,6,7.3,10.2,9.6C247.2,205.9,256,204.8,262.2,200.3z"/>
		<path id="XMLID_357_" class="st0" d="M135.3,184.6c0.4,0.6,0.8,1.1,1.1,1.7h-1.5C135,185.7,135.2,185.1,135.3,184.6z"/>
		<path id="XMLID_356_" class="st0" d="M266.4,212.7c-0.4,0.2-0.7,0.4-1.1,0.6"/>
	</g>
</g>
<g id="Colors">
</g>
</svg>
